<?xml version="1.0" encoding="UTF-8"?>
<svg xmlns="http://www.w3.org/2000/svg" xmlns:xlink="http://www.w3.org/1999/xlink" width="500px" height="500px" viewBox="0 0 500 499" version="1.1">
<g id="surface1">
<path style="fill:none;stroke-width:4;stroke-linecap:butt;stroke-linejoin:round;stroke:rgb(0%,0%,0%);stroke-opacity:1;stroke-miterlimit:10;" d="M 63.01953 200.609668 L 19.807444 25.66992 L 193.036692 75.543911 Z M 63.01953 200.609668 " transform="matrix(2.204877,0,0,2.200467,19.764519,9.357928)"/>
<path style="fill:none;stroke-width:4;stroke-linecap:butt;stroke-linejoin:round;stroke:rgb(0%,0%,0%);stroke-opacity:1;stroke-miterlimit:10;" d="M 106.389293 50.611353 L 127.980277 138.108743 L 41.414373 113.163759 Z M 106.389293 50.611353 " transform="matrix(2.204877,0,0,2.200467,19.764519,9.357928)"/>
<path style="fill:none;stroke-width:4;stroke-linecap:butt;stroke-linejoin:round;stroke:rgb(0%,0%,0%);stroke-opacity:1;stroke-miterlimit:10;" d="M 84.909922 125.029135 L 74.186181 81.565359 L 117.194529 93.911812 Z M 84.909922 125.029135 " transform="matrix(2.204877,0,0,2.200467,19.764519,9.357928)"/>
<path style="fill:none;stroke-width:4;stroke-linecap:butt;stroke-linejoin:round;stroke:rgb(0%,0%,0%);stroke-opacity:1;stroke-miterlimit:10;" d="M 63.457125 38.153063 L 74.182638 81.618615 L 31.17429 69.272161 Z M 63.457125 38.153063 " transform="matrix(2.204877,0,0,2.200467,19.764519,9.357928)"/>
<path style="fill:none;stroke-width:4;stroke-linecap:butt;stroke-linejoin:round;stroke:rgb(0%,0%,0%);stroke-opacity:1;stroke-miterlimit:10;" d="M 149.470278 62.929404 L 160.194019 106.394955 L 117.185671 94.048502 Z M 149.470278 62.929404 " transform="matrix(2.204877,0,0,2.200467,19.764519,9.357928)"/>
<path style="fill:none;stroke-width:4;stroke-linecap:butt;stroke-linejoin:round;stroke:rgb(0%,0%,0%);stroke-opacity:1;stroke-miterlimit:10;" d="M 84.915237 125.059314 L 95.638977 168.524866 L 52.63063 156.178412 Z M 84.915237 125.059314 " transform="matrix(2.204877,0,0,2.200467,19.764519,9.357928)"/>
</g>
</svg>
